# xmcd
#
# Track frame offsets:
#	150
#	8823
#	20840
#	32761
#	44096
#	55884
#	64986
#	74648
#	88664
#	101116
#	113852
#	125785
#	138404
#	150129
#	162444
#	173321
#	184545
#	201074
#	211704
#	230768
#	245450
#	258752
#	273083
#	285927
#	302897
#	316717
#	328362
#
# Disc length: 4501 seconds
#
# Revision: 1
# Processed by: cddbd v1.5.2PL0 Copyright (c) Steve Scherf et al.
# Submitted via: EasyCDDAExtractor 10.0.2.1
#
DISCID=8011931b
DTITLE=Charlie Walker - Pick Me Up On Your Way Down - CD5
DYEAR=1999
DGENRE=Country
TTITLE0=You're From Texas
TTITLE1=Don't Put Down The Honky Tonks
TTITLE2=Rosie Bokay
TTITLE3=Honky Tonk Women
TTITLE4=I Owe The World To You
TTITLE5=Let's Go Fishin' Boys (The Girls Are Bitin')
TTITLE6=You're All Dressed Up (With Somewhere To Go)
TTITLE7=Ode To Stella
TTITLE8=God Save The Queen (Of The Honky Tonks)
TTITLE9=Becky Who
TTITLE10=My Baby Used To Be That Way
TTITLE11=Before I Found The Wire
TTITLE12=Good Old Mountain Dew
TTITLE13=She's Much More Of A Woman
TTITLE14=Wild Women
TTITLE15=Got My Mind On The Border Of Mexico
TTITLE16=Pick Me Up On Your Way Down
TTITLE17=Jambalaya
TTITLE18=Almost Persuaded
TTITLE19=Moffett, Oklahoma
TTITLE20=My Shoes Keep Walking Back To You
TTITLE21=Don't Squeeze My Sharmon
TTITLE22=Honky Tonk Season
TTITLE23=San Antonio Rose
TTITLE24=El Rancho Grande
TTITLE25=The One Rose (That's Left In My Heart)
TTITLE26=You're From Texas
EXTD=
EXTT0=
EXTT1=
EXTT2=
EXTT3=
EXTT4=
EXTT5=
EXTT6=
EXTT7=
EXTT8=
EXTT9=
EXTT10=
EXTT11=
EXTT12=
EXTT13=
EXTT14=
EXTT15=
EXTT16=
EXTT17=
EXTT18=
EXTT19=
EXTT20=
EXTT21=
EXTT22=
EXTT23=
EXTT24=
EXTT25=
EXTT26=
PLAYORDER=
